<?xml version="1.0" encoding="UTF-8"?>
<svg xmlns="http://www.w3.org/2000/svg" viewBox="0 0 260 540">
  <defs>
    <radialGradient id="aura" cx="50%" cy="26%" r="52%">
      <stop offset="0%" stop-color="#4d8fff" stop-opacity="0.35"/>
      <stop offset="100%" stop-color="#38bdf8" stop-opacity="0"/>
    </radialGradient>
  </defs>
  <ellipse cx="130" cy="150" rx="120" ry="200" fill="url(#aura)"/>
  <g fill="#4d8fff" opacity="0.30">
    <path d="M90,42 C58,30 32,52 29,86 C26,115 40,152 58,166 C50,122 60,82 82,64Z"/>
    <ellipse cx="128" cy="76" rx="42" ry="50"/>
    <path d="M164,52 C186,42 206,63 208,90 C210,115 198,145 184,159 C178,116 172,82 164,59Z"/>
    <rect x="112" y="124" width="32" height="30" rx="6"/>
    <path d="M52,152 C68,142 92,138 112,146L110,244Q128,264 146,244L144,146C164,138 188,142 204,152C228,186 226,242 212,278L168,278L168,374Q166,390 128,390Q90,390 88,374L88,278L44,278C30,242 28,186 52,152Z"/>
    <path d="M52,154 C28,190 22,244 32,278L50,274C42,246 48,198 66,168Z"/>
    <path d="M204,154 C228,190 234,244 224,278L206,274C214,246 208,198 190,168Z"/>
    <path d="M88,374 L72,524 L94,526 L128,428 L162,526 L184,524 L168,374Z"/>
    <!-- Star accents -->
    <circle cx="30" cy="80" r="2"/>
    <circle cx="220" cy="45" r="1.5"/>
    <circle cx="240" cy="130" r="1.5"/>
    <circle cx="15" cy="200" r="1"/>
    <circle cx="245" cy="280" r="2"/>
    <circle cx="20" cy="350" r="1.5"/>
  </g>
</svg>
